<?xml version="1.0" standalone="no"?>
<!DOCTYPE svg PUBLIC "-//W3C//DTD SVG 20010904//EN"
 "http://www.w3.org/TR/2001/REC-SVG-20010904/DTD/svg10.dtd">
<svg version="1.0" xmlns="http://www.w3.org/2000/svg"
 width="300.000000pt" height="250.000000pt" viewBox="0 0 300.000000 250.000000"
 preserveAspectRatio="xMidYMid meet">

<g transform="translate(0.000000,250.000000) scale(0.100000,-0.100000)"
fill="#fdc836" stroke="none">
<path d="M675 2200 c-184 -29 -315 -114 -376 -244 -73 -157 -34 -326 95 -412
74 -49 153 -78 337 -125 221 -56 269 -82 269 -144 0 -65 -63 -95 -201 -95
-111 0 -218 27 -336 85 -50 25 -94 45 -97 45 -3 0 -42 -54 -86 -120 l-80 -120
42 -27 c73 -46 200 -101 283 -122 291 -76 574 -38 727 98 125 111 155 321 66
455 -62 95 -173 152 -420 216 -84 22 -173 51 -198 63 -52 26 -81 68 -64 94 53
84 234 83 442 -2 48 -19 91 -36 96 -38 8 -2 156 229 156 244 0 10 -135 75
-205 99 -136 47 -329 69 -450 50z"/>
<path d="M1400 2207 c0 -4 101 -231 105 -235 3 -4 135 222 135 231 0 4 -54 7
-120 7 -66 0 -120 -1 -120 -3z"/>
<path d="M2305 2098 c-227 -539 -227 -538 -249 -538 -18 0 -33 28 -101 190
l-79 189 -84 -141 c-54 -92 -82 -149 -78 -161 13 -50 332 -757 342 -757 6 0
106 217 222 483 116 265 247 564 291 665 l80 182 -148 0 -148 0 -48 -112z"/>
<path d="M200 565 c0 -138 1 -145 20 -145 19 0 20 7 20 108 l1 107 53 -98 53
-97 49 95 c27 52 52 95 57 95 4 0 7 -47 7 -105 0 -87 3 -105 15 -105 13 0 15
23 15 145 0 132 -2 145 -18 145 -12 0 -34 -31 -71 -101 l-53 -101 -25 44 c-14
23 -38 69 -54 101 -21 40 -35 57 -49 57 -19 0 -20 -7 -20 -145z"/>
<path d="M2740 670 c0 -20 -5 -30 -15 -30 -8 0 -15 -7 -15 -15 0 -8 7 -15 15
-15 12 0 15 -14 15 -67 0 -86 15 -117 58 -121 24 -3 32 1 32 13 0 12 -6 15
-19 10 -28 -9 -41 22 -41 99 l0 66 30 0 c39 0 41 27 3 32 -22 2 -29 9 -31 31
-5 38 -32 36 -32 -3z"/>
<path d="M645 644 c-6 -1 -22 -5 -37 -8 -16 -4 -28 -13 -28 -22 0 -12 5 -14
18 -9 58 26 112 7 112 -37 0 -17 -5 -19 -41 -13 -52 9 -94 -9 -110 -46 -10
-26 -9 -34 8 -57 24 -33 82 -41 119 -17 21 14 24 14 24 0 0 -8 7 -15 15 -15
12 0 15 16 15 84 0 68 -4 88 -20 108 -18 24 -52 38 -75 32z m65 -138 c0 -50
-62 -80 -105 -52 -29 19 -31 33 -8 58 11 13 30 18 65 18 44 0 48 -2 48 -24z"/>
<path d="M895 642 c-11 -2 -28 -11 -37 -20 -16 -14 -18 -14 -18 1 0 10 -7 17
-15 17 -12 0 -15 -19 -15 -110 0 -90 3 -110 15 -110 11 0 15 18 17 81 3 75 5
84 30 102 33 25 70 17 86 -18 7 -14 12 -57 12 -95 0 -58 3 -70 16 -70 24 0 17
170 -9 198 -19 21 -50 30 -82 24z"/>
<path d="M1145 644 c-6 -1 -22 -5 -37 -8 -16 -4 -28 -13 -28 -22 0 -12 5 -14
18 -9 58 26 112 7 112 -37 0 -17 -5 -19 -41 -13 -52 9 -94 -9 -110 -46 -10
-26 -9 -34 8 -57 24 -33 82 -41 119 -17 21 14 24 14 24 0 0 -8 7 -15 15 -15
12 0 15 16 15 84 0 68 -4 88 -20 108 -18 24 -52 38 -75 32z m65 -138 c0 -50
-62 -80 -105 -52 -29 19 -31 33 -8 58 11 13 30 18 65 18 44 0 48 -2 48 -24z"/>
<path d="M1375 641 c-51 -15 -75 -48 -75 -106 0 -73 90 -122 146 -80 26 20 34
19 34 -6 0 -58 -63 -91 -124 -65 -31 13 -36 13 -36 1 0 -41 113 -49 157 -11
27 24 28 27 31 145 3 105 2 121 -12 121 -9 0 -16 -7 -16 -16 0 -13 -3 -14 -14
-5 -20 17 -68 28 -91 22z m80 -46 c61 -60 -8 -160 -83 -121 -32 16 -42 34 -42
72 0 33 42 74 75 74 14 0 37 -11 50 -25z"/>
<path d="M1642 638 c-41 -11 -72 -59 -72 -111 0 -31 7 -46 34 -73 28 -28 41
-34 78 -34 47 0 86 20 74 38 -4 7 -15 6 -34 -4 -33 -17 -44 -17 -75 -3 -21 9
-47 46 -47 64 0 3 41 5 90 5 100 0 102 2 76 64 -21 50 -66 69 -124 54z m83
-43 c39 -38 32 -45 -50 -45 -82 0 -90 7 -49 45 34 32 68 32 99 0z"/>
<path d="M2283 638 c-47 -12 -73 -51 -73 -109 0 -40 5 -52 31 -78 24 -24 39
-31 69 -31 39 0 90 17 90 30 0 16 -13 17 -41 3 -36 -18 -84 -9 -104 20 -29 42
-21 47 75 47 65 0 90 3 90 13 0 13 -37 97 -42 97 -2 0 -17 4 -33 8 -17 5 -44
5 -62 0z m62 -24 c8 -4 22 -19 31 -35 l15 -29 -76 0 c-84 0 -96 12 -49 49 27
22 50 26 79 15z"/>
<path d="M1830 530 c0 -91 3 -110 15 -110 12 0 15 14 15 70 0 102 26 142 81
125 28 -9 39 -44 39 -126 0 -55 3 -69 15 -69 12 0 15 16 15 84 0 76 2 86 22
100 30 21 44 20 68 -4 17 -17 20 -33 20 -100 0 -64 3 -80 15 -80 12 0 15 16
15 84 0 69 -4 88 -21 110 -24 31 -81 36 -111 9 -17 -15 -19 -15 -36 0 -22 20
-82 22 -101 5 -11 -10 -14 -10 -18 0 -3 6 -11 12 -19 12 -11 0 -14 -22 -14
-110z"/>
<path d="M2470 530 c0 -91 3 -110 15 -110 12 0 15 15 15 75 0 67 3 79 25 100
29 30 58 32 85 5 17 -17 20 -33 20 -100 0 -64 3 -80 15 -80 12 0 15 16 15 84
0 69 -4 88 -21 110 -24 31 -81 36 -117 10 -20 -14 -22 -14 -22 0 0 9 -7 16
-15 16 -12 0 -15 -19 -15 -110z"/>
</g>
</svg>
