<svg version="1.1" id="Layer_1" xmlns="http://www.w3.org/2000/svg" xmlns:xlink="http://www.w3.org/1999/xlink" x="0px" y="0px"
	 width="100%" viewBox="0 0 2363 2363" enable-background="new 0 0 2363 2363" xml:space="preserve">
<path fill="#ffffff" opacity="0.000000" stroke="none" 
	d="
M10.000000,2.000000 
	C795.199524,2.000000 1580.399048,2.000000 2366.000000,2.000000 
	C2366.000000,788.732056 2366.000000,1575.464111 2365.108154,2362.791504 
	C2359.884277,2363.355225 2355.552490,2363.295654 2351.220459,2363.295654 
	C1576.269409,2363.291504 801.318481,2363.291748 26.367453,2363.291748 
	C23.700954,2363.291748 21.029743,2363.390137 18.369297,2363.263184 
	C15.813525,2363.141113 13.268892,2362.785400 10.333062,2362.494385 
	C10.333062,2357.461426 10.333062,2353.144531 10.333062,2348.827881 
	C10.333062,1570.877075 10.333570,792.926147 10.319323,14.975297 
	C10.319243,10.650196 10.111021,6.325099 10.000000,2.000000 
M239.171280,1194.181641 
	C204.473907,1245.798950 169.776550,1297.416260 135.264526,1348.757935 
	C136.032867,1350.024414 136.248932,1350.753906 136.737305,1351.125122 
	C139.915359,1353.540405 143.122238,1355.920654 146.375092,1358.234497 
	C188.047089,1387.875610 232.670792,1412.227905 279.693970,1432.196655 
	C378.126770,1473.996582 480.850830,1496.926392 587.613342,1502.393066 
	C653.499878,1505.766846 718.803162,1501.904297 783.331543,1487.881836 
	C836.710571,1476.282349 887.451721,1457.757446 933.827820,1428.366455 
	C988.159424,1393.933716 1030.086792,1348.683472 1054.731445,1288.603516 
	C1074.643799,1240.060059 1079.921021,1189.538452 1074.319092,1137.648193 
	C1067.730103,1076.612305 1042.429321,1024.820923 997.769592,982.555847 
	C969.161438,955.481750 936.147461,935.044434 900.807373,918.160400 
	C848.646912,893.240295 793.634705,876.510376 737.882935,861.984619 
	C688.960999,849.238159 639.851501,837.176453 591.135437,823.690430 
	C570.381775,817.945129 550.257141,809.756165 530.158813,801.881042 
	C518.667786,797.378601 508.273590,790.557678 499.550568,781.575745 
	C474.778503,756.068359 478.989288,719.345642 508.972504,700.639099 
	C514.307129,697.310852 520.045654,694.515930 525.850830,692.077637 
	C541.294006,685.591187 557.519714,682.001038 574.100708,679.941467 
	C614.165955,674.964722 653.968689,677.881226 693.504517,684.770142 
	C760.845215,696.503845 824.773010,718.639587 885.760437,749.378235 
	C897.577087,755.334045 909.247681,761.579590 921.455017,767.935913 
	C963.258850,699.568726 1004.884033,631.493652 1046.706299,563.096313 
	C1042.585571,560.505798 1039.270508,558.319885 1035.860718,556.293518 
	C981.017700,523.701233 923.237000,497.628418 862.609009,477.749847 
	C798.402771,456.698120 732.661072,443.381165 665.295410,438.483307 
	C620.003723,435.190369 574.753784,436.119324 529.622253,441.783539 
	C476.452789,448.456543 425.065979,461.481262 376.285553,483.975281 
	C327.856628,506.307190 284.990173,536.268433 250.781677,577.571838 
	C197.603867,641.778870 177.294876,715.850342 185.450302,798.323486 
	C192.854416,873.198669 229.170609,930.474182 290.817596,972.523926 
	C316.790558,990.240234 344.686340,1004.251892 373.696442,1016.165344 
	C428.641418,1038.729248 485.886627,1053.735596 543.377441,1068.000854 
	C588.241211,1079.132935 633.187683,1090.017700 677.702942,1102.427246 
	C696.468506,1107.658569 714.428955,1116.051025 732.357605,1123.913696 
	C743.986450,1129.013550 754.059143,1136.859863 762.732605,1146.316772 
	C781.907471,1167.223633 787.351013,1203.913696 759.291016,1228.434937 
	C751.371643,1235.355591 742.199158,1241.251953 732.772400,1245.957153 
	C709.502197,1257.572144 684.274841,1262.446533 658.520935,1263.863281 
	C614.427246,1266.288940 570.588745,1263.031494 527.132751,1255.421753 
	C444.562408,1240.963013 367.784851,1211.063599 296.161011,1167.703979 
	C287.085510,1162.209961 278.151489,1156.482300 268.613281,1150.526489 
	C258.929596,1164.879272 249.450043,1178.929688 239.171280,1194.181641 
M2082.774902,436.498199 
	C2008.889160,436.498199 1935.003296,436.498199 1861.247925,436.498199 
	C1787.283447,610.833008 1713.769897,784.104736 1640.443237,956.936279 
	C1629.277344,956.936279 1619.332153,956.936279 1608.820190,956.936279 
	C1565.826660,855.365845 1522.870361,753.883484 1479.419434,651.232544 
	C1476.975708,655.250366 1475.393066,657.773926 1473.885864,660.341736 
	C1431.416504,732.697754 1389.023682,805.098938 1346.375854,877.349670 
	C1342.499512,883.917053 1341.754150,889.100098 1345.062988,896.506042 
	C1424.470581,1074.230713 1503.547363,1252.103394 1582.692871,1429.945312 
	C1593.361084,1453.916748 1604.076294,1477.867310 1614.798340,1501.891357 
	C1621.467529,1501.891357 1627.710938,1501.891357 1634.493408,1501.891357 
	C1789.788940,1147.126099 1945.035156,792.473633 2100.860352,436.498199 
	C2094.434814,436.498199 2089.560547,436.498199 2082.774902,436.498199 
M1229.860596,608.818909 
	C1160.581421,725.544861 1091.302368,842.270813 1022.059753,958.935181 
	C1023.179260,960.129578 1023.760071,960.976624 1024.541504,961.550415 
	C1066.140991,992.092163 1090.484619,1034.035278 1103.804565,1082.908691 
	C1117.326294,1132.522583 1118.549316,1182.844482 1110.062866,1233.421143 
	C1099.732544,1294.986084 1072.428955,1347.415039 1025.134521,1388.785278 
	C1021.300842,1392.138550 1019.497314,1395.363770 1019.533508,1400.591431 
	C1019.720337,1427.578369 1019.465942,1454.567993 1019.421143,1481.556763 
	C1019.416931,1484.088745 1019.800354,1486.621338 1020.018982,1489.343262 
	C1087.595947,1489.343262 1154.429810,1489.343262 1221.865601,1489.343262 
	C1222.038574,1486.383545 1222.296021,1483.815918 1222.322754,1481.246094 
	C1222.703857,1444.603882 1223.139771,1407.962036 1223.395386,1371.318848 
	C1224.192627,1257.044800 1224.976562,1142.770508 1225.543091,1028.495239 
	C1225.580811,1020.878357 1227.276855,1014.446289 1231.143799,1007.859009 
	C1340.852417,820.973877 1450.399048,633.993591 1559.953979,447.018158 
	C1561.734009,443.980255 1563.288574,440.810364 1565.592285,436.496460 
	C1560.794678,436.496460 1557.562378,436.496460 1554.330078,436.496460 
	C1483.685547,436.496490 1413.040283,436.627991 1342.397217,436.306763 
	C1334.773682,436.272125 1330.609741,438.466187 1326.710327,445.119049 
	C1294.896606,499.398529 1262.650635,553.424683 1229.860596,608.818909 
M318.253693,1737.351318 
	C325.885376,1723.735596 332.555115,1709.559937 340.633209,1696.204102 
	C341.345520,1696.430420 342.057861,1696.656738 342.770172,1696.883057 
	C342.770172,1754.338867 342.770172,1811.794678 342.770172,1869.071045 
	C352.208649,1869.071045 360.673340,1869.071045 369.244873,1869.071045 
	C369.244873,1790.483521 369.244873,1712.634521 369.244873,1634.266113 
	C359.973145,1634.266113 351.155396,1634.266113 342.035553,1634.266113 
	C313.186676,1688.411011 284.414948,1742.411255 254.960007,1797.693726 
	C225.425491,1742.273804 196.527206,1688.047729 167.831085,1634.201050 
	C158.444122,1634.201050 149.875427,1634.201050 140.874939,1634.201050 
	C140.874939,1712.751709 140.874939,1790.846191 140.874939,1869.218506 
	C149.923523,1869.218506 158.386978,1869.218506 167.960297,1869.218506 
	C167.960297,1811.336426 167.960297,1754.033569 167.960297,1696.730713 
	C168.555145,1696.616333 169.149994,1696.501831 169.744843,1696.387451 
	C197.944702,1749.298096 226.144562,1802.208862 254.960419,1856.275269 
	C276.333527,1816.185547 296.988800,1777.442261 318.253693,1737.351318 
M1126.091431,506.959137 
	C1144.693970,548.665955 1163.296509,590.372864 1182.507202,633.442932 
	C1221.552124,567.534546 1259.611816,503.289459 1298.078857,438.356659 
	C1230.008057,438.356659 1163.348145,438.356659 1095.609497,438.356659 
	C1105.859741,461.336548 1115.716431,483.434143 1126.091431,506.959137 
M1587.879028,1830.998901 
	C1587.879517,1807.345215 1587.715454,1783.689453 1587.991699,1760.039062 
	C1588.064697,1753.791504 1588.644775,1747.299072 1590.461304,1741.369141 
	C1596.231567,1722.530518 1614.383057,1710.958374 1636.291260,1711.352295 
	C1654.685303,1711.683105 1668.744019,1723.046631 1673.952148,1742.602783 
	C1675.555298,1748.622559 1676.145142,1755.066040 1676.185913,1761.322144 
	C1676.398926,1793.969238 1676.272827,1826.618408 1676.304443,1859.266846 
	C1676.307617,1862.500244 1676.579346,1865.733398 1676.736572,1869.195068 
	C1685.542725,1869.195068 1693.655640,1869.195068 1701.911499,1869.195068 
	C1702.106812,1867.293579 1702.356079,1865.994629 1702.356689,1864.695801 
	C1702.372925,1827.383423 1702.486206,1790.070068 1702.239990,1752.759277 
	C1702.198853,1746.507812 1701.194092,1740.104370 1699.587891,1734.048828 
	C1692.887573,1708.787842 1672.220215,1690.693237 1647.394043,1688.193848 
	C1615.270386,1684.959473 1592.194458,1700.888672 1583.792725,1720.011353 
	C1583.308472,1721.113647 1582.219116,1721.950195 1581.191162,1723.171997 
	C1570.176025,1701.879639 1553.332397,1689.798462 1529.746826,1688.026611 
	C1506.771729,1686.300659 1488.045776,1694.667603 1474.240967,1714.031006 
	C1473.680664,1713.576660 1473.120361,1713.122314 1472.560059,1712.667969 
	C1472.560059,1705.878540 1472.560059,1699.088989 1472.560059,1692.394775 
	C1463.593384,1692.394775 1455.712280,1692.394775 1447.578125,1692.394775 
	C1447.578125,1751.678833 1447.578125,1810.477539 1447.578125,1869.419556 
	C1456.137451,1869.419556 1464.042725,1869.419556 1473.073364,1869.419556 
	C1473.073364,1865.458374 1473.073242,1861.868774 1473.073364,1858.279175 
	C1473.073486,1826.963257 1473.034302,1795.647339 1473.111938,1764.331665 
	C1473.125122,1759.013428 1473.274292,1753.646973 1473.988647,1748.387939 
	C1476.714478,1728.320801 1493.621826,1713.385376 1515.298706,1711.589233 
	C1536.712646,1709.814819 1552.109863,1719.788208 1558.508545,1740.455688 
	C1560.540894,1747.020142 1561.574951,1754.142944 1561.641724,1761.024048 
	C1561.958740,1793.669434 1561.771729,1826.319580 1561.801392,1858.968018 
	C1561.804688,1862.467163 1562.049316,1865.966064 1562.174438,1869.269287 
	C1571.258423,1869.269287 1579.119995,1869.269287 1587.879028,1869.269287 
	C1587.879028,1856.827393 1587.879028,1844.912842 1587.879028,1830.998901 
M1059.981201,1897.493530 
	C1053.528442,1893.604370 1047.075684,1889.715332 1040.082153,1885.500244 
	C1036.506714,1891.862671 1032.957397,1898.178589 1029.026611,1905.173218 
	C1033.491333,1908.249756 1037.355225,1911.387329 1041.634521,1913.782471 
	C1065.755005,1927.282715 1091.830688,1931.684692 1118.842285,1927.476196 
	C1165.043335,1920.278320 1189.317139,1886.572144 1188.580444,1847.528687 
	C1187.663330,1798.915405 1188.364624,1750.271606 1188.351074,1701.640991 
	C1188.350220,1698.485596 1188.213867,1695.330200 1188.146851,1692.445801 
	C1178.927734,1692.445801 1171.052490,1692.445801 1161.950195,1692.445801 
	C1161.950195,1701.565674 1161.950195,1710.231445 1161.950195,1720.860229 
	C1143.322876,1696.060791 1120.072998,1686.069946 1091.871582,1688.096313 
	C1058.658081,1690.482788 1034.825684,1706.833008 1022.241821,1738.017334 
	C1015.353271,1755.088135 1014.238342,1772.992676 1017.918701,1791.030762 
	C1024.314209,1822.376099 1042.091064,1844.550171 1073.207275,1853.122437 
	C1104.976807,1861.874634 1133.969727,1856.189331 1156.803467,1830.194702 
	C1158.132812,1828.681396 1159.643555,1827.327148 1162.245239,1824.721802 
	C1162.245239,1835.537109 1162.465820,1844.475952 1162.202637,1853.400635 
	C1161.486328,1877.690552 1148.275635,1894.967041 1124.877808,1901.823364 
	C1103.344971,1908.133057 1082.121826,1906.822144 1059.981201,1897.493530 
M1236.506470,1753.857300 
	C1235.562988,1765.752075 1233.324341,1777.711670 1233.916382,1789.529419 
	C1235.771118,1826.550903 1261.726440,1859.423096 1297.230103,1869.849976 
	C1330.597778,1879.649780 1360.958008,1871.632568 1388.856567,1852.058838 
	C1390.999634,1850.555054 1393.211060,1849.148315 1395.975586,1847.306885 
	C1389.445923,1840.419189 1384.462280,1835.162354 1379.173340,1829.583374 
	C1367.117188,1840.223877 1353.221069,1846.129761 1337.998657,1849.182739 
	C1303.404663,1856.120728 1273.084351,1838.513184 1262.970703,1805.434814 
	C1261.572876,1800.863159 1260.923706,1796.062744 1259.675049,1790.176514 
	C1309.031494,1790.176514 1356.843628,1790.176514 1405.072510,1790.176514 
	C1404.951416,1770.450562 1402.275513,1752.252441 1394.631836,1734.921265 
	C1378.336914,1697.974121 1344.209717,1682.870483 1307.249390,1689.086548 
	C1271.015015,1695.180542 1248.251709,1717.689331 1236.506470,1753.857300 
M1912.355469,1752.714966 
	C1911.622925,1750.160156 1910.975952,1747.577148 1910.145020,1745.054688 
	C1893.434814,1694.335693 1840.717529,1672.611816 1793.398682,1697.468628 
	C1763.198608,1713.333130 1747.947632,1739.451782 1745.171265,1773.013184 
	C1741.700684,1814.966919 1764.823608,1850.979248 1798.975098,1866.181396 
	C1831.780029,1880.783813 1878.252563,1873.067017 1904.484741,1848.477539 
	C1905.131958,1847.870728 1905.428223,1846.890015 1906.113770,1845.688232 
	C1901.041382,1840.329590 1896.066650,1835.073975 1890.811279,1829.521851 
	C1878.957275,1840.111450 1865.348267,1845.839844 1850.461304,1848.970581 
	C1813.480957,1856.747925 1782.283203,1837.190186 1773.385498,1800.458374 
	C1772.654785,1797.441895 1772.389526,1794.312622 1771.775635,1790.390991 
	C1820.656616,1790.390991 1868.187744,1790.390991 1916.140137,1790.390991 
	C1917.164917,1777.718018 1915.578125,1765.969849 1912.355469,1752.714966 
M485.286194,1757.933350 
	C469.619781,1758.489502 455.018402,1762.552490 442.263702,1771.870483 
	C424.687653,1784.710693 416.583984,1802.147583 418.971436,1823.848022 
	C421.431824,1846.211548 434.045013,1861.062378 454.813019,1868.945801 
	C488.159698,1881.604126 525.525330,1869.333862 542.341125,1847.679077 
	C543.021423,1846.802979 544.027710,1846.180054 546.512390,1844.025879 
	C546.512390,1853.868164 546.512390,1861.638550 546.512390,1869.256348 
	C555.437866,1869.256348 563.299255,1869.256348 571.631470,1869.256348 
	C571.785889,1866.817871 572.013306,1864.890259 572.014404,1862.962646 
	C572.034302,1827.981934 572.136414,1793.000488 571.924377,1758.020996 
	C571.886353,1751.745728 571.138306,1745.331543 569.672424,1739.232788 
	C563.239563,1712.469116 546.912109,1695.491455 519.544983,1689.792480 
	C503.919586,1686.538696 488.427094,1687.408569 473.026459,1691.130127 
	C460.160461,1694.239014 447.749969,1698.531738 435.759155,1705.475952 
	C439.478943,1712.736450 442.903625,1719.421021 446.260803,1725.973877 
	C453.853424,1722.592896 460.430969,1719.355469 467.236603,1716.703369 
	C478.472717,1712.324951 490.058624,1709.298828 502.284119,1710.157227 
	C519.361633,1711.356323 533.224854,1717.899902 540.665039,1734.331299 
	C545.273987,1744.510254 546.904602,1755.216553 545.389832,1767.145386 
	C526.054626,1762.173096 507.016510,1757.330566 485.286194,1757.933350 
M863.533203,1718.174438 
	C875.956848,1713.134155 888.642578,1709.455933 902.274658,1710.117920 
	C922.647766,1711.107422 936.929626,1721.418701 942.881958,1739.807373 
	C945.673279,1748.430542 946.805176,1757.264404 945.377441,1767.146606 
	C941.927795,1766.238770 938.769043,1765.374023 935.593262,1764.577271 
	C918.430969,1760.270996 901.121887,1757.062622 883.306458,1758.036377 
	C867.654236,1758.892090 853.231018,1763.435791 840.678101,1773.031250 
	C807.229004,1798.599609 812.403015,1849.257935 850.227722,1867.046997 
	C880.166382,1881.127197 918.655518,1873.593140 941.095459,1849.301880 
	C942.225952,1848.078369 943.656006,1847.131592 946.435486,1844.814819 
	C946.435486,1854.250732 946.435486,1861.726318 946.435486,1869.024292 
	C955.458618,1869.024292 963.556152,1869.024292 972.031982,1869.024292 
	C972.031982,1858.936035 972.032715,1849.623657 972.031860,1840.311279 
	C972.029175,1812.341187 972.358643,1784.366211 971.942261,1756.402344 
	C971.368103,1717.844971 947.223206,1691.370483 910.195801,1688.200684 
	C883.843750,1685.944824 859.573730,1693.045044 835.900269,1705.078491 
	C838.791382,1711.134766 841.463867,1716.814819 844.226196,1722.451050 
	C844.786316,1723.593994 845.685669,1724.570679 846.614929,1725.888062 
	C851.962097,1723.417480 857.033691,1721.074097 863.533203,1718.174438 
M2110.224121,1771.010498 
	C2110.140625,1764.014893 2110.338379,1757.002686 2109.925049,1750.026611 
	C2108.254639,1721.845947 2091.135254,1698.636841 2065.157227,1691.140747 
	C2036.431885,1682.851807 2011.220825,1689.382690 1990.702148,1711.792725 
	C1989.319336,1713.303345 1987.758423,1714.651001 1984.877686,1717.425293 
	C1984.877686,1707.865845 1984.877686,1700.290283 1984.877686,1692.487061 
	C1975.952271,1692.487061 1967.831421,1692.487061 1959.791992,1692.487061 
	C1957.901001,1707.737549 1958.551392,1862.382812 1960.455933,1869.326904 
	C1968.341675,1869.326904 1976.217041,1869.326904 1985.086426,1869.326904 
	C1985.086426,1865.238770 1985.086548,1861.643433 1985.086548,1858.048096 
	C1985.086548,1827.392578 1985.083862,1796.736938 1985.090576,1766.081421 
	C1985.091309,1763.083496 1985.119019,1760.085083 1985.184937,1757.087891 
	C1985.502075,1742.680176 1992.251465,1731.664551 2003.448608,1723.173828 
	C2012.399414,1716.386597 2022.538452,1712.507690 2033.800415,1711.608398 
	C2059.630615,1709.545654 2077.488770,1722.677734 2082.783691,1748.156738 
	C2083.922607,1753.636719 2084.036133,1759.397461 2084.056641,1765.031006 
	C2084.171387,1796.352539 2084.100098,1827.674683 2084.129395,1858.996704 
	C2084.132568,1862.499023 2084.369385,1866.000977 2084.489990,1869.281860 
	C2093.631104,1869.281860 2101.509277,1869.281860 2110.224121,1869.281860 
	C2110.224121,1836.831299 2110.224121,1804.918823 2110.224121,1771.010498 
M656.005249,1737.614258 
	C663.956482,1724.191284 676.136475,1716.555664 690.876221,1712.861084 
	C720.316833,1705.481689 743.555603,1720.632202 748.792358,1750.513916 
	C749.591248,1755.072388 749.741577,1759.789185 749.753235,1764.433838 
	C749.832886,1796.098145 749.781433,1827.762695 749.816101,1859.427246 
	C749.819641,1862.647583 750.112915,1865.867798 750.271362,1869.080688 
	C759.124634,1869.080688 767.223328,1869.080688 775.653259,1869.080688 
	C775.653259,1829.062256 776.594116,1789.738770 775.315369,1750.487427 
	C774.491943,1725.209961 762.255310,1705.237183 738.545105,1694.058960 
	C710.695312,1680.928711 676.815063,1688.348633 656.493591,1711.529175 
	C655.092957,1713.126831 653.493103,1714.549683 650.662476,1717.374390 
	C650.662476,1707.943481 650.662476,1700.369629 650.662476,1692.446777 
	C641.744690,1692.446777 633.609863,1692.446777 625.284180,1692.446777 
	C625.284180,1751.745239 625.284180,1810.518677 625.284180,1869.409180 
	C633.927551,1869.409180 641.835205,1869.409180 650.647644,1869.409180 
	C650.647644,1865.403687 650.647644,1861.792114 650.647644,1858.180420 
	C650.647705,1825.515991 650.378235,1792.847656 650.860596,1760.190430 
	C650.965210,1753.109009 653.769104,1746.067383 656.005249,1737.614258 
M2176.297852,1812.958252 
	C2176.885742,1822.568115 2176.280029,1832.441284 2178.328125,1841.729126 
	C2181.804688,1857.496704 2191.869141,1868.161621 2207.908691,1872.296265 
	C2224.402588,1876.548096 2239.045410,1872.601929 2253.078125,1862.443481 
	C2248.585205,1855.773071 2244.720703,1850.035522 2240.668945,1844.020020 
	C2237.931641,1845.513550 2235.727783,1846.894775 2233.382324,1847.966919 
	C2218.397705,1854.816040 2204.771240,1847.313965 2202.578857,1831.011108 
	C2202.313965,1829.041870 2202.376465,1827.021606 2202.375732,1825.025024 
	C2202.364990,1791.046265 2202.359375,1757.067383 2202.387939,1723.088623 
	C2202.389648,1720.830933 2202.674561,1718.573486 2202.911865,1715.069580 
	C2217.391846,1715.069580 2231.492676,1715.069580 2245.316650,1715.069580 
	C2245.316650,1706.624512 2245.316650,1699.488037 2245.316650,1691.539429 
	C2230.768799,1691.539429 2216.928955,1691.539429 2202.345947,1691.539429 
	C2202.345947,1675.175171 2202.345947,1659.625122 2202.345947,1643.779053 
	C2193.375244,1643.779053 2185.179199,1643.779053 2175.882324,1643.779053 
	C2175.882324,1660.067627 2175.882324,1675.844360 2175.882324,1692.376221 
	C2166.275635,1692.376221 2157.767822,1692.376221 2149.257324,1692.376221 
	C2149.257324,1700.328247 2149.257324,1707.441895 2149.257324,1715.402222 
	C2158.446289,1715.402222 2166.961914,1715.402222 2176.297852,1715.402222 
	C2176.297852,1747.835205 2176.297852,1779.403198 2176.297852,1812.958252 
z"/>
<path fill="#FFFFFF" opacity="0.000000" stroke="none" 
	d="
M9.000001,2.000000 
	C10.111021,6.325099 10.319243,10.650196 10.319323,14.975297 
	C10.333570,792.926147 10.333062,1570.877075 10.333062,2348.827881 
	C10.333062,2353.144531 10.333062,2357.461426 10.333062,2362.494385 
	C13.268892,2362.785400 15.813525,2363.141113 18.369297,2363.263184 
	C21.029743,2363.390137 23.700954,2363.291748 26.367453,2363.291748 
	C801.318481,2363.291748 1576.269409,2363.291504 2351.220459,2363.295654 
	C2355.552490,2363.295654 2359.884277,2363.355225 2365.108154,2363.693359 
	C2365.666992,2364.666748 2365.368652,2365.887695 2364.995117,2365.911377 
	C2362.339355,2366.077881 2359.668457,2366.000000 2357.002197,2366.000000 
	C1572.167725,2366.000000 787.333252,2366.000000 2.249402,2366.000000 
	C2.249402,1578.000122 2.249402,790.000061 2.249402,2.000000 
	C4.001736,2.000000 6.000869,2.000000 9.000001,2.000000 
z"/>
<path fill="#ffffff" opacity="1.000000" stroke="none" 
	d="
M239.570892,1193.580811 
	C249.450043,1178.929688 258.929596,1164.879272 268.613281,1150.526489 
	C278.151489,1156.482300 287.085510,1162.209961 296.161011,1167.703979 
	C367.784851,1211.063599 444.562408,1240.963013 527.132751,1255.421753 
	C570.588745,1263.031494 614.427246,1266.288940 658.520935,1263.863281 
	C684.274841,1262.446533 709.502197,1257.572144 732.772400,1245.957153 
	C742.199158,1241.251953 751.371643,1235.355591 759.291016,1228.434937 
	C787.351013,1203.913696 781.907471,1167.223633 762.732605,1146.316772 
	C754.059143,1136.859863 743.986450,1129.013550 732.357605,1123.913696 
	C714.428955,1116.051025 696.468506,1107.658569 677.702942,1102.427246 
	C633.187683,1090.017700 588.241211,1079.132935 543.377441,1068.000854 
	C485.886627,1053.735596 428.641418,1038.729248 373.696442,1016.165344 
	C344.686340,1004.251892 316.790558,990.240234 290.817596,972.523926 
	C229.170609,930.474182 192.854416,873.198669 185.450302,798.323486 
	C177.294876,715.850342 197.603867,641.778870 250.781677,577.571838 
	C284.990173,536.268433 327.856628,506.307190 376.285553,483.975281 
	C425.065979,461.481262 476.452789,448.456543 529.622253,441.783539 
	C574.753784,436.119324 620.003723,435.190369 665.295410,438.483307 
	C732.661072,443.381165 798.402771,456.698120 862.609009,477.749847 
	C923.237000,497.628418 981.017700,523.701233 1035.860718,556.293518 
	C1039.270508,558.319885 1042.585571,560.505798 1046.706299,563.096313 
	C1004.884033,631.493652 963.258850,699.568726 921.455017,767.935913 
	C909.247681,761.579590 897.577087,755.334045 885.760437,749.378235 
	C824.773010,718.639587 760.845215,696.503845 693.504517,684.770142 
	C653.968689,677.881226 614.165955,674.964722 574.100708,679.941467 
	C557.519714,682.001038 541.294006,685.591187 525.850830,692.077637 
	C520.045654,694.515930 514.307129,697.310852 508.972504,700.639099 
	C478.989288,719.345642 474.778503,756.068359 499.550568,781.575745 
	C508.273590,790.557678 518.667786,797.378601 530.158813,801.881042 
	C550.257141,809.756165 570.381775,817.945129 591.135437,823.690430 
	C639.851501,837.176453 688.960999,849.238159 737.882935,861.984619 
	C793.634705,876.510376 848.646912,893.240295 900.807373,918.160400 
	C936.147461,935.044434 969.161438,955.481750 997.769592,982.555847 
	C1042.429321,1024.820923 1067.730103,1076.612305 1074.319092,1137.648193 
	C1079.921021,1189.538452 1074.643799,1240.060059 1054.731445,1288.603516 
	C1030.086792,1348.683472 988.159424,1393.933716 933.827820,1428.366455 
	C887.451721,1457.757446 836.710571,1476.282349 783.331543,1487.881836 
	C718.803162,1501.904297 653.499878,1505.766846 587.613342,1502.393066 
	C480.850830,1496.926392 378.126770,1473.996582 279.693970,1432.196655 
	C232.670792,1412.227905 188.047089,1387.875610 146.375092,1358.234497 
	C143.122238,1355.920654 139.915359,1353.540405 136.737305,1351.125122 
	C136.248932,1350.753906 136.032867,1350.024414 135.264526,1348.757935 
	C169.776550,1297.416260 204.473907,1245.798950 239.570892,1193.580811 
z"/>
<path fill="#ffffff" opacity="1.000000" stroke="none" 
	d="
M2083.730469,436.498199 
	C2089.560547,436.498199 2094.434814,436.498199 2100.860352,436.498199 
	C1945.035156,792.473633 1789.788940,1147.126099 1634.493408,1501.891357 
	C1627.710938,1501.891357 1621.467529,1501.891357 1614.798340,1501.891357 
	C1604.076294,1477.867310 1593.361084,1453.916748 1582.692871,1429.945312 
	C1503.547363,1252.103394 1424.470581,1074.230713 1345.062988,896.506042 
	C1341.754150,889.100098 1342.499512,883.917053 1346.375854,877.349670 
	C1389.023682,805.098938 1431.416504,732.697754 1473.885864,660.341736 
	C1475.393066,657.773926 1476.975708,655.250366 1479.419434,651.232544 
	C1522.870361,753.883484 1565.826660,855.365845 1608.820190,956.936279 
	C1619.332153,956.936279 1629.277344,956.936279 1640.443237,956.936279 
	C1713.769897,784.104736 1787.283447,610.833008 1861.247925,436.498199 
	C1935.003296,436.498199 2008.889160,436.498199 2083.730469,436.498199 
z"/>
<path fill="#fdc836" opacity="1.000000" stroke="none" 
	d="
M1230.198364,608.173462 
	C1262.650635,553.424683 1294.896606,499.398529 1326.710327,445.119049 
	C1330.609741,438.466187 1334.773682,436.272125 1342.397217,436.306763 
	C1413.040283,436.627991 1483.685547,436.496490 1554.330078,436.496460 
	C1557.562378,436.496460 1560.794678,436.496460 1565.592285,436.496460 
	C1563.288574,440.810364 1561.734009,443.980255 1559.953979,447.018158 
	C1450.399048,633.993591 1340.852417,820.973877 1231.143799,1007.859009 
	C1227.276855,1014.446289 1225.580811,1020.878357 1225.543091,1028.495239 
	C1224.976562,1142.770508 1224.192627,1257.044800 1223.395386,1371.318848 
	C1223.139771,1407.962036 1222.703857,1444.603882 1222.322754,1481.246094 
	C1222.296021,1483.815918 1222.038574,1486.383545 1221.865601,1489.343262 
	C1154.429810,1489.343262 1087.595947,1489.343262 1020.018982,1489.343262 
	C1019.800354,1486.621338 1019.416931,1484.088745 1019.421143,1481.556763 
	C1019.465942,1454.567993 1019.720337,1427.578369 1019.533508,1400.591431 
	C1019.497314,1395.363770 1021.300842,1392.138550 1025.134521,1388.785278 
	C1072.428955,1347.415039 1099.732544,1294.986084 1110.062866,1233.421143 
	C1118.549316,1182.844482 1117.326294,1132.522583 1103.804565,1082.908691 
	C1090.484619,1034.035278 1066.140991,992.092163 1024.541504,961.550415 
	C1023.760071,960.976624 1023.179260,960.129578 1022.059753,958.935181 
	C1091.302368,842.270813 1160.581421,725.544861 1230.198364,608.173462 
z"/>
<path fill="#fdc836" opacity="1.000000" stroke="none" 
	d="
M317.948883,1738.025146 
	C296.988800,1777.442261 276.333527,1816.185547 254.960419,1856.275269 
	C226.144562,1802.208862 197.944702,1749.298096 169.744843,1696.387451 
	C169.149994,1696.501831 168.555145,1696.616333 167.960297,1696.730713 
	C167.960297,1754.033569 167.960297,1811.336426 167.960297,1869.218506 
	C158.386978,1869.218506 149.923523,1869.218506 140.874939,1869.218506 
	C140.874939,1790.846191 140.874939,1712.751709 140.874939,1634.201050 
	C149.875427,1634.201050 158.444122,1634.201050 167.831085,1634.201050 
	C196.527206,1688.047729 225.425491,1742.273804 254.960007,1797.693726 
	C284.414948,1742.411255 313.186676,1688.411011 342.035553,1634.266113 
	C351.155396,1634.266113 359.973145,1634.266113 369.244873,1634.266113 
	C369.244873,1712.634521 369.244873,1790.483521 369.244873,1869.071045 
	C360.673340,1869.071045 352.208649,1869.071045 342.770172,1869.071045 
	C342.770172,1811.794678 342.770172,1754.338867 342.770172,1696.883057 
	C342.057861,1696.656738 341.345520,1696.430420 340.633209,1696.204102 
	C332.555115,1709.559937 325.885376,1723.735596 317.948883,1738.025146 
z"/>
<path fill="#ffffff" opacity="1.000000" stroke="none" 
	d="
M1125.832275,506.245422 
	C1115.716431,483.434143 1105.859741,461.336548 1095.609497,438.356659 
	C1163.348145,438.356659 1230.008057,438.356659 1298.078857,438.356659 
	C1259.611816,503.289459 1221.552124,567.534546 1182.507202,633.442932 
	C1163.296509,590.372864 1144.693970,548.665955 1125.832275,506.245422 
z"/>
<path fill="#fdc836" opacity="1.000000" stroke="none" 
	d="
M1587.879028,1831.998535 
	C1587.879028,1844.912842 1587.879028,1856.827393 1587.879028,1869.269287 
	C1579.119995,1869.269287 1571.258423,1869.269287 1562.174438,1869.269287 
	C1562.049316,1865.966064 1561.804688,1862.467163 1561.801392,1858.968018 
	C1561.771729,1826.319580 1561.958740,1793.669434 1561.641724,1761.024048 
	C1561.574951,1754.142944 1560.540894,1747.020142 1558.508545,1740.455688 
	C1552.109863,1719.788208 1536.712646,1709.814819 1515.298706,1711.589233 
	C1493.621826,1713.385376 1476.714478,1728.320801 1473.988647,1748.387939 
	C1473.274292,1753.646973 1473.125122,1759.013428 1473.111938,1764.331665 
	C1473.034302,1795.647339 1473.073486,1826.963257 1473.073364,1858.279175 
	C1473.073242,1861.868774 1473.073364,1865.458374 1473.073364,1869.419556 
	C1464.042725,1869.419556 1456.137451,1869.419556 1447.578125,1869.419556 
	C1447.578125,1810.477539 1447.578125,1751.678833 1447.578125,1692.394775 
	C1455.712280,1692.394775 1463.593384,1692.394775 1472.560059,1692.394775 
	C1472.560059,1699.088989 1472.560059,1705.878540 1472.560059,1712.667969 
	C1473.120361,1713.122314 1473.680664,1713.576660 1474.240967,1714.031006 
	C1488.045776,1694.667603 1506.771729,1686.300659 1529.746826,1688.026611 
	C1553.332397,1689.798462 1570.176025,1701.879639 1581.191162,1723.171997 
	C1582.219116,1721.950195 1583.308472,1721.113647 1583.792725,1720.011353 
	C1592.194458,1700.888672 1615.270386,1684.959473 1647.394043,1688.193848 
	C1672.220215,1690.693237 1692.887573,1708.787842 1699.587891,1734.048828 
	C1701.194092,1740.104370 1702.198853,1746.507812 1702.239990,1752.759277 
	C1702.486206,1790.070068 1702.372925,1827.383423 1702.356689,1864.695801 
	C1702.356079,1865.994629 1702.106812,1867.293579 1701.911499,1869.195068 
	C1693.655640,1869.195068 1685.542725,1869.195068 1676.736572,1869.195068 
	C1676.579346,1865.733398 1676.307617,1862.500244 1676.304443,1859.266846 
	C1676.272827,1826.618408 1676.398926,1793.969238 1676.185913,1761.322144 
	C1676.145142,1755.066040 1675.555298,1748.622559 1673.952148,1742.602783 
	C1668.744019,1723.046631 1654.685303,1711.683105 1636.291260,1711.352295 
	C1614.383057,1710.958374 1596.231567,1722.530518 1590.461304,1741.369141 
	C1588.644775,1747.299072 1588.064697,1753.791504 1587.991699,1760.039062 
	C1587.715454,1783.689453 1587.879517,1807.345215 1587.879028,1831.998535 
z"/>
<path fill="#fdc836" opacity="1.000000" stroke="none" 
	d="
M1060.699707,1897.762451 
	C1082.121826,1906.822144 1103.344971,1908.133057 1124.877808,1901.823364 
	C1148.275635,1894.967041 1161.486328,1877.690552 1162.202637,1853.400635 
	C1162.465820,1844.475952 1162.245239,1835.537109 1162.245239,1824.721802 
	C1159.643555,1827.327148 1158.132812,1828.681396 1156.803467,1830.194702 
	C1133.969727,1856.189331 1104.976807,1861.874634 1073.207275,1853.122437 
	C1042.091064,1844.550171 1024.314209,1822.376099 1017.918701,1791.030762 
	C1014.238342,1772.992676 1015.353271,1755.088135 1022.241821,1738.017334 
	C1034.825684,1706.833008 1058.658081,1690.482788 1091.871582,1688.096313 
	C1120.072998,1686.069946 1143.322876,1696.060791 1161.950195,1720.860229 
	C1161.950195,1710.231445 1161.950195,1701.565674 1161.950195,1692.445801 
	C1171.052490,1692.445801 1178.927734,1692.445801 1188.146851,1692.445801 
	C1188.213867,1695.330200 1188.350220,1698.485596 1188.351074,1701.640991 
	C1188.364624,1750.271606 1187.663330,1798.915405 1188.580444,1847.528687 
	C1189.317139,1886.572144 1165.043335,1920.278320 1118.842285,1927.476196 
	C1091.830688,1931.684692 1065.755005,1927.282715 1041.634521,1913.782471 
	C1037.355225,1911.387329 1033.491333,1908.249756 1029.026611,1905.173218 
	C1032.957397,1898.178589 1036.506714,1891.862671 1040.082153,1885.500244 
	C1047.075684,1889.715332 1053.528442,1893.604370 1060.699707,1897.762451 
M1075.942749,1827.602783 
	C1078.740845,1828.640625 1081.495483,1829.820312 1084.343750,1830.694214 
	C1114.473022,1839.939453 1152.954712,1826.735474 1160.964600,1785.979614 
	C1162.415283,1778.598633 1162.442871,1770.708984 1161.756592,1763.179199 
	C1159.560303,1739.079712 1143.437378,1720.134521 1120.417114,1713.594604 
	C1095.842896,1706.613159 1070.333130,1714.565674 1055.803345,1733.412231 
	C1035.965088,1759.144409 1038.902344,1808.779663 1075.942749,1827.602783 
z"/>
<path fill="#fdc836" opacity="1.000000" stroke="none" 
	d="
M1236.790527,1753.093384 
	C1248.251709,1717.689331 1271.015015,1695.180542 1307.249390,1689.086548 
	C1344.209717,1682.870483 1378.336914,1697.974121 1394.631836,1734.921265 
	C1402.275513,1752.252441 1404.951416,1770.450562 1405.072510,1790.176514 
	C1356.843628,1790.176514 1309.031494,1790.176514 1259.675049,1790.176514 
	C1260.923706,1796.062744 1261.572876,1800.863159 1262.970703,1805.434814 
	C1273.084351,1838.513184 1303.404663,1856.120728 1337.998657,1849.182739 
	C1353.221069,1846.129761 1367.117188,1840.223877 1379.173340,1829.583374 
	C1384.462280,1835.162354 1389.445923,1840.419189 1395.975586,1847.306885 
	C1393.211060,1849.148315 1390.999634,1850.555054 1388.856567,1852.058838 
	C1360.958008,1871.632568 1330.597778,1879.649780 1297.230103,1869.849976 
	C1261.726440,1859.423096 1235.771118,1826.550903 1233.916382,1789.529419 
	C1233.324341,1777.711670 1235.562988,1765.752075 1236.790527,1753.093384 
M1260.852539,1763.643799 
	C1260.452026,1769.762451 1265.188721,1767.450562 1267.799072,1767.461914 
	C1302.734253,1767.614136 1337.670532,1767.572876 1372.606445,1767.536621 
	C1374.517090,1767.534546 1376.427368,1767.153564 1378.290771,1766.954102 
	C1378.167847,1728.674316 1343.309448,1702.893799 1305.848877,1713.265015 
	C1280.945190,1720.159668 1267.012329,1737.485229 1260.852539,1763.643799 
z"/>
<path fill="#fdc836" opacity="1.000000" stroke="none" 
	d="
M1912.568726,1753.518311 
	C1915.578125,1765.969849 1917.164917,1777.718018 1916.140137,1790.390991 
	C1868.187744,1790.390991 1820.656616,1790.390991 1771.775635,1790.390991 
	C1772.389526,1794.312622 1772.654785,1797.441895 1773.385498,1800.458374 
	C1782.283203,1837.190186 1813.480957,1856.747925 1850.461304,1848.970581 
	C1865.348267,1845.839844 1878.957275,1840.111450 1890.811279,1829.521851 
	C1896.066650,1835.073975 1901.041382,1840.329590 1906.113770,1845.688232 
	C1905.428223,1846.890015 1905.131958,1847.870728 1904.484741,1848.477539 
	C1878.252563,1873.067017 1831.780029,1880.783813 1798.975098,1866.181396 
	C1764.823608,1850.979248 1741.700684,1814.966919 1745.171265,1773.013184 
	C1747.947632,1739.451782 1763.198608,1713.333130 1793.398682,1697.468628 
	C1840.717529,1672.611816 1893.434814,1694.335693 1910.145020,1745.054688 
	C1910.975952,1747.577148 1911.622925,1750.160156 1912.568726,1753.518311 
M1777.853516,1747.121704 
	C1775.235596,1753.474731 1772.393433,1759.774292 1772.685303,1766.882935 
	C1790.999023,1768.728394 1883.164062,1767.959351 1890.128174,1765.950439 
	C1888.181152,1732.042603 1863.812866,1712.057373 1837.645020,1711.294189 
	C1810.619263,1710.505981 1790.993286,1721.923584 1777.853516,1747.121704 
z"/>
<path fill="#fdc836" opacity="1.000000" stroke="none" 
	d="
M486.237762,1757.929932 
	C507.016510,1757.330566 526.054626,1762.173096 545.389832,1767.145386 
	C546.904602,1755.216553 545.273987,1744.510254 540.665039,1734.331299 
	C533.224854,1717.899902 519.361633,1711.356323 502.284119,1710.157227 
	C490.058624,1709.298828 478.472717,1712.324951 467.236603,1716.703369 
	C460.430969,1719.355469 453.853424,1722.592896 446.260803,1725.973877 
	C442.903625,1719.421021 439.478943,1712.736450 435.759155,1705.475952 
	C447.749969,1698.531738 460.160461,1694.239014 473.026459,1691.130127 
	C488.427094,1687.408569 503.919586,1686.538696 519.544983,1689.792480 
	C546.912109,1695.491455 563.239563,1712.469116 569.672424,1739.232788 
	C571.138306,1745.331543 571.886353,1751.745728 571.924377,1758.020996 
	C572.136414,1793.000488 572.034302,1827.981934 572.014404,1862.962646 
	C572.013306,1864.890259 571.785889,1866.817871 571.631470,1869.256348 
	C563.299255,1869.256348 555.437866,1869.256348 546.512390,1869.256348 
	C546.512390,1861.638550 546.512390,1853.868164 546.512390,1844.025879 
	C544.027710,1846.180054 543.021423,1846.802979 542.341125,1847.679077 
	C525.525330,1869.333862 488.159698,1881.604126 454.813019,1868.945801 
	C434.045013,1861.062378 421.431824,1846.211548 418.971436,1823.848022 
	C416.583984,1802.147583 424.687653,1784.710693 442.263702,1771.870483 
	C455.018402,1762.552490 469.619781,1758.489502 486.237762,1757.929932 
M525.220276,1840.507690 
	C546.853943,1825.486328 548.312988,1814.016724 544.681396,1786.717285 
	C526.315674,1781.727295 507.582581,1779.171021 488.496552,1780.053345 
	C474.778015,1780.687500 462.342468,1784.987427 452.664062,1795.220215 
	C439.776825,1808.845947 441.288605,1829.342163 455.954468,1841.059204 
	C462.333038,1846.155151 469.737366,1848.996338 477.812195,1850.082520 
	C494.175110,1852.283691 509.610352,1849.538452 525.220276,1840.507690 
z"/>
<path fill="#fdc836" opacity="1.000000" stroke="none" 
	d="
M862.819275,1718.452637 
	C857.033691,1721.074097 851.962097,1723.417480 846.614929,1725.888062 
	C845.685669,1724.570679 844.786316,1723.593994 844.226196,1722.451050 
	C841.463867,1716.814819 838.791382,1711.134766 835.900269,1705.078491 
	C859.573730,1693.045044 883.843750,1685.944824 910.195801,1688.200684 
	C947.223206,1691.370483 971.368103,1717.844971 971.942261,1756.402344 
	C972.358643,1784.366211 972.029175,1812.341187 972.031860,1840.311279 
	C972.032715,1849.623657 972.031982,1858.936035 972.031982,1869.024292 
	C963.556152,1869.024292 955.458618,1869.024292 946.435486,1869.024292 
	C946.435486,1861.726318 946.435486,1854.250732 946.435486,1844.814819 
	C943.656006,1847.131592 942.225952,1848.078369 941.095459,1849.301880 
	C918.655518,1873.593140 880.166382,1881.127197 850.227722,1867.046997 
	C812.403015,1849.257935 807.229004,1798.599609 840.678101,1773.031250 
	C853.231018,1763.435791 867.654236,1758.892090 883.306458,1758.036377 
	C901.121887,1757.062622 918.430969,1760.270996 935.593262,1764.577271 
	C938.769043,1765.374023 941.927795,1766.238770 945.377441,1767.146606 
	C946.805176,1757.264404 945.673279,1748.430542 942.881958,1739.807373 
	C936.929626,1721.418701 922.647766,1711.107422 902.274658,1710.117920 
	C888.642578,1709.455933 875.956848,1713.134155 862.819275,1718.452637 
M915.610413,1781.202271 
	C906.987976,1780.791870 898.285278,1779.476685 889.766174,1780.231934 
	C881.652954,1780.951294 873.682739,1783.656860 865.754272,1785.865112 
	C863.288269,1786.552002 861.050781,1788.306274 858.900085,1789.840088 
	C836.843994,1805.570801 839.618347,1834.697998 864.223328,1846.079834 
	C886.839905,1856.541870 920.472351,1849.718506 936.660400,1830.763062 
	C940.631592,1826.112915 944.460449,1820.192383 945.408508,1814.375732 
	C946.871399,1805.400635 945.793762,1796.011353 945.793762,1786.776978 
	C938.930908,1785.274292 933.122070,1783.900513 927.267761,1782.760254 
	C924.013245,1782.126587 920.682739,1781.882568 915.610413,1781.202271 
z"/>
<path fill="#fdc836" opacity="1.000000" stroke="none" 
	d="
M2110.224121,1772.008423 
	C2110.224121,1804.918823 2110.224121,1836.831299 2110.224121,1869.281860 
	C2101.509277,1869.281860 2093.631104,1869.281860 2084.489990,1869.281860 
	C2084.369385,1866.000977 2084.132568,1862.499023 2084.129395,1858.996704 
	C2084.100098,1827.674683 2084.171387,1796.352539 2084.056641,1765.031006 
	C2084.036133,1759.397461 2083.922607,1753.636719 2082.783691,1748.156738 
	C2077.488770,1722.677734 2059.630615,1709.545654 2033.800415,1711.608398 
	C2022.538452,1712.507690 2012.399414,1716.386597 2003.448608,1723.173828 
	C1992.251465,1731.664551 1985.502075,1742.680176 1985.184937,1757.087891 
	C1985.119019,1760.085083 1985.091309,1763.083496 1985.090576,1766.081421 
	C1985.083862,1796.736938 1985.086548,1827.392578 1985.086548,1858.048096 
	C1985.086548,1861.643433 1985.086426,1865.238770 1985.086426,1869.326904 
	C1976.217041,1869.326904 1968.341675,1869.326904 1960.455933,1869.326904 
	C1958.551392,1862.382812 1957.901001,1707.737549 1959.791992,1692.487061 
	C1967.831421,1692.487061 1975.952271,1692.487061 1984.877686,1692.487061 
	C1984.877686,1700.290283 1984.877686,1707.865845 1984.877686,1717.425293 
	C1987.758423,1714.651001 1989.319336,1713.303345 1990.702148,1711.792725 
	C2011.220825,1689.382690 2036.431885,1682.851807 2065.157227,1691.140747 
	C2091.135254,1698.636841 2108.254639,1721.845947 2109.925049,1750.026611 
	C2110.338379,1757.002686 2110.140625,1764.014893 2110.224121,1772.008423 
z"/>
<path fill="#fdc836" opacity="1.000000" stroke="none" 
	d="
M655.667480,1738.310791 
	C653.769104,1746.067383 650.965210,1753.109009 650.860596,1760.190430 
	C650.378235,1792.847656 650.647705,1825.515991 650.647644,1858.180420 
	C650.647644,1861.792114 650.647644,1865.403687 650.647644,1869.409180 
	C641.835205,1869.409180 633.927551,1869.409180 625.284180,1869.409180 
	C625.284180,1810.518677 625.284180,1751.745239 625.284180,1692.446777 
	C633.609863,1692.446777 641.744690,1692.446777 650.662476,1692.446777 
	C650.662476,1700.369629 650.662476,1707.943481 650.662476,1717.374390 
	C653.493103,1714.549683 655.092957,1713.126831 656.493591,1711.529175 
	C676.815063,1688.348633 710.695312,1680.928711 738.545105,1694.058960 
	C762.255310,1705.237183 774.491943,1725.209961 775.315369,1750.487427 
	C776.594116,1789.738770 775.653259,1829.062256 775.653259,1869.080688 
	C767.223328,1869.080688 759.124634,1869.080688 750.271362,1869.080688 
	C750.112915,1865.867798 749.819641,1862.647583 749.816101,1859.427246 
	C749.781433,1827.762695 749.832886,1796.098145 749.753235,1764.433838 
	C749.741577,1759.789185 749.591248,1755.072388 748.792358,1750.513916 
	C743.555603,1720.632202 720.316833,1705.481689 690.876221,1712.861084 
	C676.136475,1716.555664 663.956482,1724.191284 655.667480,1738.310791 
z"/>
<path fill="#fdc836" opacity="1.000000" stroke="none" 
	d="
M2176.297852,1811.964722 
	C2176.297852,1779.403198 2176.297852,1747.835205 2176.297852,1715.402222 
	C2166.961914,1715.402222 2158.446289,1715.402222 2149.257324,1715.402222 
	C2149.257324,1707.441895 2149.257324,1700.328247 2149.257324,1692.376221 
	C2157.767822,1692.376221 2166.275635,1692.376221 2175.882324,1692.376221 
	C2175.882324,1675.844360 2175.882324,1660.067627 2175.882324,1643.779053 
	C2185.179199,1643.779053 2193.375244,1643.779053 2202.345947,1643.779053 
	C2202.345947,1659.625122 2202.345947,1675.175171 2202.345947,1691.539429 
	C2216.928955,1691.539429 2230.768799,1691.539429 2245.316650,1691.539429 
	C2245.316650,1699.488037 2245.316650,1706.624512 2245.316650,1715.069580 
	C2231.492676,1715.069580 2217.391846,1715.069580 2202.911865,1715.069580 
	C2202.674561,1718.573486 2202.389648,1720.830933 2202.387939,1723.088623 
	C2202.359375,1757.067383 2202.364990,1791.046265 2202.375732,1825.025024 
	C2202.376465,1827.021606 2202.313965,1829.041870 2202.578857,1831.011108 
	C2204.771240,1847.313965 2218.397705,1854.816040 2233.382324,1847.966919 
	C2235.727783,1846.894775 2237.931641,1845.513550 2240.668945,1844.020020 
	C2244.720703,1850.035522 2248.585205,1855.773071 2253.078125,1862.443481 
	C2239.045410,1872.601929 2224.402588,1876.548096 2207.908691,1872.296265 
	C2191.869141,1868.161621 2181.804688,1857.496704 2178.328125,1841.729126 
	C2176.280029,1832.441284 2176.885742,1822.568115 2176.297852,1811.964722 
z"/>
<path fill="#ffffff" opacity="0.000000" stroke="none" 
	d="
M1075.283081,1827.221680 
	C1038.902344,1808.779663 1035.965088,1759.144409 1055.803345,1733.412231 
	C1070.333130,1714.565674 1095.842896,1706.613159 1120.417114,1713.594604 
	C1143.437378,1720.134521 1159.560303,1739.079712 1161.756592,1763.179199 
	C1162.442871,1770.708984 1162.415283,1778.598633 1160.964600,1785.979614 
	C1152.954712,1826.735474 1114.473022,1839.939453 1084.343750,1830.694214 
	C1081.495483,1829.820312 1078.740845,1828.640625 1075.283081,1827.221680 
z"/>
<path fill="#ffffff" opacity="0.000000" stroke="none" 
	d="
M1261.080566,1762.874512 
	C1267.012329,1737.485229 1280.945190,1720.159668 1305.848877,1713.265015 
	C1343.309448,1702.893799 1378.167847,1728.674316 1378.290771,1766.954102 
	C1376.427368,1767.153564 1374.517090,1767.534546 1372.606445,1767.536621 
	C1337.670532,1767.572876 1302.734253,1767.614136 1267.799072,1767.461914 
	C1265.188721,1767.450562 1260.452026,1769.762451 1261.080566,1762.874512 
z"/>
<path fill="#ffffff" opacity="0.000000" stroke="none" 
	d="
M1778.131348,1746.421387 
	C1790.993286,1721.923584 1810.619263,1710.505981 1837.645020,1711.294189 
	C1863.812866,1712.057373 1888.181152,1732.042603 1890.128174,1765.950439 
	C1883.164062,1767.959351 1790.999023,1768.728394 1772.685303,1766.882935 
	C1772.393433,1759.774292 1775.235596,1753.474731 1778.131348,1746.421387 
z"/>
<path fill="#ffffff" opacity="0.000000" stroke="none" 
	d="
M524.619263,1840.935791 
	C509.610352,1849.538452 494.175110,1852.283691 477.812195,1850.082520 
	C469.737366,1848.996338 462.333038,1846.155151 455.954468,1841.059204 
	C441.288605,1829.342163 439.776825,1808.845947 452.664062,1795.220215 
	C462.342468,1784.987427 474.778015,1780.687500 488.496552,1780.053345 
	C507.582581,1779.171021 526.315674,1781.727295 544.681396,1786.717285 
	C548.312988,1814.016724 546.853943,1825.486328 524.619263,1840.935791 
z"/>
<path fill="#ffffff" opacity="0.000000" stroke="none" 
	d="
M916.498474,1781.332520 
	C920.682739,1781.882568 924.013245,1782.126587 927.267761,1782.760254 
	C933.122070,1783.900513 938.930908,1785.274292 945.793762,1786.776978 
	C945.793762,1796.011353 946.871399,1805.400635 945.408508,1814.375732 
	C944.460449,1820.192383 940.631592,1826.112915 936.660400,1830.763062 
	C920.472351,1849.718506 886.839905,1856.541870 864.223328,1846.079834 
	C839.618347,1834.697998 836.843994,1805.570801 858.900085,1789.840088 
	C861.050781,1788.306274 863.288269,1786.552002 865.754272,1785.865112 
	C873.682739,1783.656860 881.652954,1780.951294 889.766174,1780.231934 
	C898.285278,1779.476685 906.987976,1780.791870 916.498474,1781.332520 
z"/>
</svg>