<?xml version="1.0" standalone="no"?>
<!DOCTYPE svg PUBLIC "-//W3C//DTD SVG 20010904//EN"
 "http://www.w3.org/TR/2001/REC-SVG-20010904/DTD/svg10.dtd">
<svg version="1.0" xmlns="http://www.w3.org/2000/svg"
 width="392.000000pt" height="392.000000pt" viewBox="0 0 392.000000 392.000000"
 preserveAspectRatio="xMidYMid meet">

<g transform="translate(0.000000,392.000000) scale(0.100000,-0.100000)"
fill="#fdc836" stroke="none">
<path d="M2817 3169 c-345 -376 -621 -685 -614 -687 6 -1 113 9 237 22 124 13
227 22 229 20 8 -8 -29 -225 -60 -353 -92 -378 -264 -730 -486 -993 -257 -304
-666 -389 -1133 -237 -132 43 -273 107 -396 178 -57 34 -106 61 -109 61 -3 0
-95 -120 -205 -267 l-199 -267 82 -57 c311 -219 698 -395 1002 -458 378 -77
731 -38 1033 113 261 131 580 496 862 986 139 243 192 366 312 734 l112 346
173 -172 c95 -95 173 -168 173 -161 0 16 -369 1823 -378 1852 -7 22 -64 -36
-635 -660z"/>
<path d="M1137 3674 c-291 -45 -509 -151 -714 -347 -187 -180 -278 -374 -290
-623 -10 -199 20 -338 109 -507 55 -104 208 -263 314 -325 177 -105 564 -239
1013 -352 258 -65 374 -129 427 -235 l27 -56 54 53 c106 103 216 289 304 513
46 117 47 121 31 149 -23 39 -105 99 -185 136 -37 17 -177 59 -310 95 -379
100 -697 193 -753 221 -62 29 -137 107 -167 172 -17 37 -22 66 -22 137 0 78 4
97 27 140 37 71 101 131 167 157 50 20 73 23 206 22 130 0 163 -4 247 -27 167
-46 348 -124 512 -221 l75 -45 137 242 c75 133 148 261 162 285 30 52 32 49
-93 125 -254 154 -518 252 -782 292 -126 18 -374 18 -496 -1z"/>
</g>
</svg>
